PathFileType	4	(X/Y/Z)	C:\Users\italobelli\Desktop\GitHub\PTbot_officialCBL\Personal_Results\ABD21_noisy1.trc
DataRate	CameraRate	NumFrames	NumMarkers	Units	OrigDataRate	OrigDataStartFrame	OrigNumFrames
106.533333	106.533333	29	9	m	106.533333	201	800
Frame#	Time		gu		centelbow		EpL		centpxt8		centijc7		ij		ts		aa		ai
			X1	Y1	Z1	X2	Y2	Z2	X3	Y3	Z3	X4	Y4	Z4	X5	Y5	Z5	X6	Y6	Z6	X7	Y7	Z7	X8	Y8	Z8	X9	Y9	Z9

201	1.8773	-0.088668	0.037593	0.1411	-0.092048	-0.051816	0.36081	-0.10479	-0.022881	0.36709	-0.046816	-0.15316	-0.008669	-0.046816	0.031938	-0.008669	0	0	0	-0.12988	0.0087167	0.027849	-0.12612	0.054208	0.13765	-0.12696	-0.093454	0.075385
202	1.8867	-0.088633	0.03825	0.14094	-0.091405	-0.047876	0.36195	-0.10419	-0.018888	0.36785	-0.046816	-0.15316	-0.008669	-0.046816	0.031938	-0.008669	0	0	0	-0.13002	0.0083833	0.027951	-0.12619	0.054614	0.13749	-0.12695	-0.093489	0.076233
203	1.8961	-0.088599	0.038895	0.14078	-0.090779	-0.04395	0.36303	-0.1036	-0.014912	0.36855	-0.046816	-0.15316	-0.008669	-0.046816	0.031938	-0.008669	0	0	0	-0.13015	0.0080513	0.028053	-0.12627	0.055016	0.13733	-0.12696	-0.093524	0.077074
204	1.9055	-0.088566	0.039526	0.14061	-0.090169	-0.04004	0.36406	-0.10304	-0.010958	0.3692	-0.046816	-0.15316	-0.008669	-0.046816	0.031938	-0.008669	0	0	0	-0.13027	0.0077212	0.028156	-0.12634	0.055414	0.13717	-0.12696	-0.093558	0.077907
205	1.9149	-0.088536	0.040144	0.14044	-0.089577	-0.036149	0.36503	-0.10249	-0.0070277	0.3698	-0.046816	-0.15316	-0.008669	-0.046816	0.031938	-0.008669	0	0	0	-0.1304	0.0073932	0.028258	-0.12641	0.055809	0.13699	-0.12698	-0.09359	0.07873
206	1.9243	-0.088508	0.040747	0.14026	-0.089003	-0.032281	0.36593	-0.10196	-0.0031241	0.37033	-0.046816	-0.15316	-0.008669	-0.046816	0.031938	-0.008669	0	0	0	-0.13052	0.0070676	0.028359	-0.12649	0.0562	0.13682	-0.127	-0.093622	0.079543
207	1.9337	-0.088482	0.041335	0.14008	-0.08845	-0.028438	0.36677	-0.10146	0.00074995	0.37081	-0.046816	-0.15316	-0.008669	-0.046816	0.031938	-0.008669	0	0	0	-0.13063	0.0067449	0.028461	-0.12656	0.056587	0.13663	-0.12703	-0.093653	0.080345
208	1.9431	-0.088458	0.041908	0.13988	-0.087917	-0.024623	0.36754	-0.10098	0.0045914	0.37122	-0.046816	-0.15316	-0.008669	-0.046816	0.031938	-0.008669	0	0	0	-0.13075	0.0064252	0.028561	-0.12664	0.056969	0.13644	-0.12706	-0.093683	0.081135
209	1.9524	-0.088437	0.042463	0.13969	-0.087407	-0.02084	0.36825	-0.10051	0.0083974	0.37157	-0.046816	-0.15316	-0.008669	-0.046816	0.031938	-0.008669	0	0	0	-0.13085	0.006109	0.028661	-0.12672	0.057348	0.13624	-0.12711	-0.093711	0.081911
210	1.9618	-0.088418	0.043002	0.13949	-0.086919	-0.01709	0.36888	-0.10008	0.012165	0.37185	-0.046816	-0.15316	-0.008669	-0.046816	0.031938	-0.008669	0	0	0	-0.13096	0.0057965	0.02876	-0.1268	0.057721	0.13603	-0.12716	-0.093739	0.082672
211	1.9712	-0.088402	0.043523	0.13928	-0.086456	-0.013378	0.36944	-0.099669	0.015891	0.37207	-0.046816	-0.15316	-0.008669	-0.046816	0.031938	-0.008669	0	0	0	-0.13105	0.005488	0.028859	-0.12688	0.05809	0.13582	-0.12721	-0.093765	0.083418
212	1.9806	-0.088389	0.044025	0.13906	-0.086019	-0.0097057	0.36992	-0.099286	0.019574	0.37221	-0.046816	-0.15316	-0.008669	-0.046816	0.031938	-0.008669	0	0	0	-0.13115	0.005184	0.028956	-0.12696	0.058453	0.13559	-0.12728	-0.09379	0.084148
213	1.99	-0.088379	0.044508	0.13884	-0.085608	-0.0060765	0.37033	-0.09893	0.023209	0.37228	-0.046816	-0.15316	-0.008669	-0.046816	0.031938	-0.008669	0	0	0	-0.13123	0.0048847	0.029051	-0.12705	0.058812	0.13536	-0.12735	-0.093814	0.084861
214	1.9994	-0.088371	0.044971	0.13861	-0.085225	-0.0024932	0.37066	-0.098605	0.026794	0.37228	-0.046816	-0.15316	-0.008669	-0.046816	0.031938	-0.008669	0	0	0	-0.13131	0.0045904	0.029146	-0.12713	0.059166	0.13512	-0.12743	-0.093837	0.085554
215	2.0088	-0.088371	0.045421	0.13836	-0.08487	0.001087	0.37091	-0.098309	0.03037	0.3722	-0.046816	-0.15316	-0.008669	-0.046816	0.031938	-0.008669	0	0	0	-0.13139	0.0042975	0.029239	-0.12722	0.059515	0.13487	-0.12752	-0.093854	0.086238
216	2.0181	-0.088381	0.04587	0.13809	-0.084544	0.0047204	0.37108	-0.098041	0.033992	0.37204	-0.046816	-0.15316	-0.008669	-0.046816	0.031938	-0.008669	0	0	0	-0.13147	0.0040008	0.029333	-0.12732	0.059864	0.13461	-0.12762	-0.093861	0.086922
217	2.0275	-0.088403	0.046315	0.1378	-0.084246	0.0084041	0.37118	-0.097802	0.037657	0.37179	-0.046816	-0.15316	-0.008669	-0.046816	0.031938	-0.008669	0	0	0	-0.13155	0.0037006	0.029426	-0.12743	0.06021	0.13434	-0.12772	-0.093858	0.087606
218	2.0369	-0.088435	0.046758	0.13748	-0.083974	0.012135	0.3712	-0.097589	0.041362	0.37147	-0.046816	-0.15316	-0.008669	-0.046816	0.031938	-0.008669	0	0	0	-0.13162	0.0033972	0.029519	-0.12754	0.060555	0.13407	-0.12784	-0.093845	0.088291
219	2.0463	-0.088477	0.047198	0.13715	-0.083727	0.015911	0.37115	-0.097401	0.045104	0.37107	-0.046816	-0.15316	-0.008669	-0.046816	0.031938	-0.008669	0	0	0	-0.1317	0.0030906	0.029612	-0.12766	0.060898	0.13379	-0.12795	-0.093823	0.088976
220	2.0557	-0.088529	0.047635	0.13679	-0.083504	0.019728	0.37103	-0.097238	0.048881	0.37059	-0.046816	-0.15316	-0.008669	-0.046816	0.031938	-0.008669	0	0	0	-0.13177	0.0027811	0.029705	-0.12778	0.06124	0.13351	-0.12808	-0.093791	0.089662
221	2.0651	-0.088592	0.048069	0.13642	-0.083305	0.023583	0.37084	-0.097098	0.05269	0.37004	-0.046816	-0.15316	-0.008669	-0.046816	0.031938	-0.008669	0	0	0	-0.13185	0.002469	0.029799	-0.12791	0.061579	0.13322	-0.12821	-0.09375	0.090348
222	2.0745	-0.088663	0.0485	0.13602	-0.083128	0.027475	0.37059	-0.09698	0.056527	0.36942	-0.046816	-0.15316	-0.008669	-0.046816	0.031938	-0.008669	0	0	0	-0.13192	0.0021543	0.029892	-0.12805	0.061918	0.13292	-0.12834	-0.0937	0.091033
223	2.0839	-0.088744	0.048927	0.13561	-0.082971	0.031398	0.37027	-0.096882	0.06039	0.36873	-0.046816	-0.15316	-0.008669	-0.046816	0.031938	-0.008669	0	0	0	-0.13199	0.0018373	0.029985	-0.1282	0.062254	0.13262	-0.12848	-0.093641	0.091719
224	2.0932	-0.088834	0.04935	0.13518	-0.082834	0.035352	0.36989	-0.096805	0.064277	0.36798	-0.046816	-0.15316	-0.008669	-0.046816	0.031938	-0.008669	0	0	0	-0.13207	0.0015182	0.030079	-0.12835	0.062588	0.13231	-0.12863	-0.093574	0.092404
225	2.1026	-0.088933	0.04977	0.13473	-0.082716	0.039332	0.36945	-0.096746	0.068184	0.36716	-0.046816	-0.15316	-0.008669	-0.046816	0.031938	-0.008669	0	0	0	-0.13214	0.0011972	0.030173	-0.1285	0.062921	0.132	-0.12878	-0.093499	0.093089
226	2.112	-0.08904	0.050186	0.13427	-0.082615	0.043335	0.36895	-0.096704	0.072109	0.36628	-0.046816	-0.15316	-0.008669	-0.046816	0.031938	-0.008669	0	0	0	-0.13221	0.00087453	0.030267	-0.12866	0.063252	0.13168	-0.12893	-0.093416	0.093774
227	2.1214	-0.089155	0.050598	0.1338	-0.08253	0.04736	0.36839	-0.096679	0.076048	0.36534	-0.046816	-0.15316	-0.008669	-0.046816	0.031938	-0.008669	0	0	0	-0.13228	0.00055035	0.030361	-0.12883	0.06358	0.13136	-0.12909	-0.093325	0.094458
228	2.1308	-0.089277	0.051005	0.13331	-0.082461	0.051402	0.36777	-0.096669	0.08	0.36434	-0.046816	-0.15316	-0.008669	-0.046816	0.031938	-0.008669	0	0	0	-0.13235	0.00022487	0.030455	-0.129	0.063907	0.13103	-0.12925	-0.093226	0.095141
229	2.1402	-0.089408	0.051409	0.13281	-0.082405	0.055459	0.3671	-0.096673	0.08396	0.36328	-0.046816	-0.15316	-0.008669	-0.046816	0.031938	-0.008669	0	0	0	-0.13242	-0.0001017	0.03055	-0.12918	0.064232	0.1307	-0.12942	-0.09312	0.095824
